<svg xmlns="http://www.w3.org/2000/svg" class="style__LikeIcon-zxsodr-31 fwjlUM" width="24" height="24" viewBox="0 0 48 48" fill="none"><path fill-rule="evenodd" clip-rule="evenodd" d="M23.9996 13.623L20.6051 10.5561C17.2106 7.48978 11.57 8.17753 8.48147 11.5785C4.60233 15.6667 4.60214 22.5859 8.70675 26.9121L24 41.8811L39.2923 26.9121C43.3969 22.5859 43.3971 15.6675 39.5176 11.5785C36.4291 8.17753 30.7888 7.48991 27.3942 10.5561L23.9996 13.623ZM37.0081 24.6701C39.9446 21.533 39.8523 16.5805 37.1962 13.781L37.1721 13.7556L37.1487 13.7298C35.0533 11.4225 31.4219 11.2305 29.5394 12.9306L23.9996 17.9356L18.4601 12.9308C16.5777 11.2306 12.9458 11.4224 10.8504 13.7298L10.8269 13.7557L10.8028 13.7811C8.14716 16.5799 8.05453 21.533 10.9909 24.6701L23.9999 37.4033L37.0081 24.6701Z" fill="black"/></svg>