<svg xmlns="http://www.w3.org/2000/svg" class="style__NotificationIcon-zxsodr-32 hrEQMZ" width="24" height="24" viewBox="0 0 24 24" fill="none"><path fill-rule="evenodd" clip-rule="evenodd" d="M10.7501 3.5C10.6121 3.5 10.5001 3.61193 10.5001 3.75V4.16109C7.35495 4.84777 5.00013 7.64889 5.00013 11V14.6875L4.53246 18.7212C4.51524 18.8697 4.63131 19 4.78079 19H19.2195C19.369 19 19.485 18.8697 19.4678 18.7212L19.0001 14.6875V11C19.0001 7.64888 16.6453 4.84775 13.5001 4.16109V3.75C13.5001 3.61193 13.3882 3.5 13.2501 3.5H10.7501ZM6.29636 17.4L6.60013 14.7799V11C6.60013 8.01766 9.01779 5.6 12.0001 5.6C14.9825 5.6 17.4001 8.01766 17.4001 11V14.7799L17.7039 17.4H6.29636Z" fill="#191919"/><path d="M10.0001 20H14.5001C14.5001 20.8284 13.8285 21.5 13.0001 21.5H11.5001C10.6717 21.5 10.0001 20.8284 10.0001 20Z" fill="#191919"/></svg>