<svg fill="#F86452" viewBox="0 0 48 48" xmlns="http://www.w3.org/2000/svg"><path d="M20.332 6.1a.1.1 0 0 1 .1-.1h6.765a.1.1 0 0 1 .1.1v12.13a.1.1 0 0 0 .15.086l10.387-6.027a.1.1 0 0 1 .136.037l3.383 5.888a.1.1 0 0 1-.036.137l-10.3 5.977a.1.1 0 0 0 0 .173l9.802 5.688a.1.1 0 0 1 .036.136l-3.383 5.889a.1.1 0 0 1-.136.036l-9.889-5.738a.1.1 0 0 0-.15.087V41.9a.1.1 0 0 1-.1.1h-6.765a.1.1 0 0 1-.1-.1V30.701a.1.1 0 0 0-.15-.086L10.47 36.25a.1.1 0 0 1-.137-.036l-3.383-5.89a.1.1 0 0 1 .037-.135l9.802-5.688a.1.1 0 0 0 0-.173l-10.3-5.977a.1.1 0 0 1-.037-.137l3.383-5.888a.1.1 0 0 1 .137-.037l10.21 5.925a.1.1 0 0 0 .15-.087V6.1Z"/></svg>