<svg fill="#F86452" viewBox="0 0 48 48" xmlns="http://www.w3.org/2000/svg"><path d="M21.5 23.1C21.5 23.0448 21.5448 23 21.6 23H26.4C26.4552 23 26.5 23.0448 26.5 23.1V33.9C26.5 33.9552 26.4552 34 26.4 34H21.6C21.5448 34 21.5 33.9552 21.5 33.9V23.1Z"></path><path d="M21 17C21 15.3431 22.3431 14 24 14C25.6569 14 27 15.3431 27 17C27 18.6569 25.6569 20 24 20C22.3431 20 21 18.6569 21 17Z"></path><path fill-rule="evenodd" clip-rule="evenodd" d="M24 40C32.8366 40 40 32.8366 40 24C40 15.1634 32.8366 8 24 8C15.1634 8 8 15.1634 8 24C8 32.8366 15.1634 40 24 40ZM24 44C35.0457 44 44 35.0457 44 24C44 12.9543 35.0457 4 24 4C12.9543 4 4 12.9543 4 24C4 35.0457 12.9543 44 24 44Z"></path></svg>