<svg fill="#F86452" viewBox="0 0 48 48" xmlns="http://www.w3.org/2000/svg"><path fillRule="evenodd" clipRule="evenodd" d="M30.469 28.1702L31.6199 27.382C34.3726 25.4967 36 22.2707 36 18.2036C36 12.2507 30.5846 7 24 7C17.4154 7 12 12.2507 12 18.2036C12 22.2707 13.6274 25.4967 16.3801 27.382L17.531 28.1702L18.6941 31.9412H29.3059L30.469 28.1702ZM32.2581 35.9412H15.7419L14.1198 30.6821C10.1084 27.9347 8 23.3701 8 18.2036C8 9.80689 15.4485 3 24 3C32.5515 3 40 9.80689 40 18.2036C40 23.3701 37.8916 27.9347 33.8802 30.6821L32.2581 35.9412Z"></path><path d="M17 39H31V43H17V39Z"></path></svg>