<svg fill="#F86452" viewBox="0 0 48 48" xmlns="http://www.w3.org/2000/svg"><path d="M21 32C21 30.3431 22.3431 29 24 29C25.6569 29 27 30.3431 27 32C27 33.6569 25.6569 35 24 35C22.3431 35 21 33.6569 21 32Z"></path><path d="M21.9348 26.9132C21.9415 26.9622 21.9838 27 22.0333 27H26.0227C26.0817 27 26.1276 26.9473 26.1235 26.8885C25.8753 23.3015 30.3992 22.3538 30.3992 18.5189C30.3992 14.6445 26.5708 13 24.4315 13C22.3011 13 19.2378 13 17.224 17.9579C17.2092 17.9945 17.2169 18.0376 17.2444 18.066L19.8 20.704C19.8484 20.7539 19.9321 20.7395 19.9628 20.6771C21.2872 17.9873 22.4684 16.9859 23.8375 16.9859C24.6647 16.9859 25.7817 17.627 25.7817 18.8534C25.7817 21.1235 21.3597 22.6862 21.9348 26.9132Z"></path><path fill-rule="evenodd" clip-rule="evenodd" d="M24 40C32.8366 40 40 32.8366 40 24C40 15.1634 32.8366 8 24 8C15.1634 8 8 15.1634 8 24C8 32.8366 15.1634 40 24 40ZM24 44C35.0457 44 44 35.0457 44 24C44 12.9543 35.0457 4 24 4C12.9543 4 4 12.9543 4 24C4 35.0457 12.9543 44 24 44Z"></path></svg>