<svg viewBox="0 0 107.89 28.39" xmlns="http://www.w3.org/2000/svg"><path d="M23.45 8.82H21.9c-.12 0-.23 0-.28.12l-2.27 5.5c-1.15 2.89-2.31 4.62-4.9 5a1.41 1.41 0 0 1-1.24-.32c-.27-.33-.26-.89.05-1.64l2.82-6.89v-.07l.58-1.43a.18.18 0 0 0 0-.21c-.06-.08-.15-.06-.25-.06H12.9c-.12 0-.24 0-.28.12l-.58 1.4a.35.35 0 0 0 0 .31.33.33 0 0 0 .25.16h1.46L11 17.49a3.53 3.53 0 0 0 0 3 3.2 3.2 0 0 0 2.58 1.06 8.27 8.27 0 0 0 4.32-1.47l.08-.05v.09a2.27 2.27 0 0 0 1.37 1.29c.74.19 1.81.18 3.44-1.52a.31.31 0 0 0 0-.43l-.77-.76a.31.31 0 0 0-.45 0c-.47.6-.94.91-1.32.88a.39.39 0 0 1-.33-.26 3.77 3.77 0 0 1 .4-2 .31.31 0 0 0 0-.13l.22-.45 3.15-7.68a.18.18 0 0 0 0-.21c-.04-.06-.14-.03-.24-.03ZM9.11 8.87H6.2l.94-2.43a.55.55 0 0 0 0-.39c-.06-.08-.15-.24-.25-.24h-1.6c-.12 0-.24.22-.28.33l-1 2.73H1.9c-.12 0-.24 0-.28.12l-.58 1.4a.35.35 0 0 0 0 .31.33.33 0 0 0 .25.16h1.87L.57 17.32l-.09.22c-.6 1.54-.63 2.62-.09 3.31a2.77 2.77 0 0 0 2.29.8 5.54 5.54 0 0 0 4.59-2.46 8.86 8.86 0 0 0 1.09-2 .31.31 0 0 0-.29-.42H6.39a.31.31 0 0 0-.28.18 4.5 4.5 0 0 1-2.38 2.49c-.57.16-1 .13-1.16-.1-.32-.38-.12-1.22.16-1.86l2.67-6.63h3.15a.35.35 0 0 0 .28-.23l.58-1.45a.19.19 0 0 0 0-.22c-.1-.09-.2-.08-.3-.08ZM43.1 18.52a.31.31 0 0 0-.47.05c-.26.4-.8 1.08-1.49 1.08a.29.29 0 0 1-.27-.11c-.12-.17-.09-.42.08-.9l2.32-5.69a4.69 4.69 0 0 0 .24-3.32 2.35 2.35 0 0 0-1.54-1.28 5 5 0 0 0-1.49-.23 5.35 5.35 0 0 0-4 1.79l-.1.11v-.14a2.14 2.14 0 0 0-1.86-1.53 4.82 4.82 0 0 0-3.4 1l-.23.18.28-.66a.27.27 0 0 0 0-.27.29.29 0 0 0-.26-.12h-3.5a.29.29 0 0 0-.28.17l-.58 1.42a.27.27 0 0 0 0 .27.29.29 0 0 0 .25.11h1.48l-.85 2.13-3 7.58a.39.39 0 0 0 0 .33.35.35 0 0 0 .25.17h1.57a.35.35 0 0 0 .28-.23l2.24-5.59c1.13-2.57 3-4.27 4.85-4.41.63 0 .8.22.86.31.33.53-.05 1.62-.33 2.19l-3 7.2a.31.31 0 0 0 .28.42H33a.29.29 0 0 0 .28-.19l2.79-6.79c1.15-2.4 3-3.48 4.22-3.49a1.21 1.21 0 0 1 1.12.5c.4.7-.18 1.93-.36 2.29l-2.25 5.47a2.73 2.73 0 0 0-.16 2.27 1.81 1.81 0 0 0 1.54.8h.52a3.84 3.84 0 0 0 3.2-1.77.31.31 0 0 0 0-.37ZM91.5 19.19l-.77-.76a.3.3 0 0 0-.23-.09.3.3 0 0 0-.22.12c-.34.43-.84.93-1.32.88a.39.39 0 0 1-.33-.26 3.77 3.77 0 0 1 .4-2 .3.3 0 0 0 0-.1l.23-.5 3.14-7.67a.18.18 0 0 0 0-.21c-.06-.08-.15-.06-.25-.06h-1.59c-.12 0-.23 0-.28.12l-2.27 5.5c-1.15 2.89-2.31 4.62-4.91 5a1.4 1.4 0 0 1-1.2-.26c-.27-.33-.26-.89.05-1.64l2.82-6.89v-.07l.58-1.43a.18.18 0 0 0 0-.21c-.06-.08-.15-.06-.25-.06h-3.54c-.12 0-.24 0-.28.12l-.58 1.4a.35.35 0 0 0 0 .31.33.33 0 0 0 .25.16h1.46l-2.71 6.66a3.51 3.51 0 0 0 0 3 3.2 3.2 0 0 0 2.58 1.06 8.27 8.27 0 0 0 4.28-1.52l.08-.05v.09A2.27 2.27 0 0 0 88 21.12c.74.19 1.81.18 3.44-1.52a.31.31 0 0 0 .06-.41ZM107.78 9.19a1.66 1.66 0 0 0-1-1 2.24 2.24 0 0 0-2.52.73l-.11.15-.05.08-.06-.07a4.44 4.44 0 0 0-3-1.39h-.33a5.56 5.56 0 0 0-5.34 4.59 5.11 5.11 0 0 0 .17 2.16v.07h-.07a4.38 4.38 0 0 0-1.85 1.44 3 3 0 0 0 .34 3.88l.08.08-.14.04a4.3 4.3 0 0 0-2.49 4.38 4.12 4.12 0 0 0 1.2 2.69c.92.91 2.34 1.35 4.36 1.34a14.5 14.5 0 0 0 3-.25c4.59-1 5.26-3.71 5.25-5.27a3.44 3.44 0 0 0-1.18-2.74c-2-1.67-5.77-1.08-5.93-1.05-2.16-.13-2.5-.72-2.63-.94a1 1 0 0 1 0-1 2.26 2.26 0 0 1 1-.86 4.4 4.4 0 0 0 2.87 1.24h.31a5.5 5.5 0 0 0 5.39-4.56 5 5 0 0 0-.31-2.53 2.13 2.13 0 0 1 .8-.7.46.46 0 0 1 .36 0 .41.41 0 0 1 .22.26.85.85 0 0 1-.09.59.31.31 0 0 0 .14.4l.8.39a.31.31 0 0 0 .41-.14 2.69 2.69 0 0 0 .4-2.01Zm-8 6.25h-.18a2.4 2.4 0 0 1-1.87-1.12 2.83 2.83 0 0 1-.32-1.76 3.38 3.38 0 0 1 3.27-2.74h.22a2.31 2.31 0 0 1 1.68.81 2.7 2.7 0 0 1 .54 2.1 3.37 3.37 0 0 1-3.29 2.71Zm-6.05 7.84a3 3 0 0 1 2.18-2.25 10 10 0 0 0 3.7 0 4.42 4.42 0 0 1 2.78.7 1.8 1.8 0 0 1 .63 1.28 2.24 2.24 0 0 1-.63 1.58c-1 1.11-3 1.66-5.86 1.63a3.07 3.07 0 0 1-2.49-1 2.15 2.15 0 0 1-.26-1.94ZM76.12 8.64a4.45 4.45 0 0 0-4.19-.5l-.18.07-.17.07 3.14-7.8a.36.36 0 0 0 0-.31.33.33 0 0 0-.25-.16H70.7a.33.33 0 0 0-.28.22l-.58 1.45a.39.39 0 0 0 0 .32.35.35 0 0 0 .25.17h1.7l-4.82 12.05c-.09.23-.26.69-.54 1.63a4.7 4.7 0 0 0 1.37 4.83 3.84 3.84 0 0 0 2.42.79 5.68 5.68 0 0 0 1.81-.33 9.56 9.56 0 0 0 5.87-8.08 5 5 0 0 0-1.78-4.42Zm-5.51 10.75a2.2 2.2 0 0 1-1.46-.52 2.7 2.7 0 0 1-.68-2.74l1.64-4.18a3.85 3.85 0 0 1 2.25-1.85 2.91 2.91 0 0 1 2.48.27 3 3 0 0 1 .92 2.58c-.14 2.66-2.13 5.55-4.35 6.31a2.49 2.49 0 0 1-.8.13ZM55.75 8.71a4.45 4.45 0 0 0-4.19-.5l-.18.07-.17.07 3.14-7.8a.36.36 0 0 0 0-.31.33.33 0 0 0-.25-.16h-3.77a.33.33 0 0 0-.28.22l-.58 1.45a.39.39 0 0 0 0 .32.35.35 0 0 0 .25.17h1.7L46.6 14.3c-.23.58-.55 1.67-.55 1.68a4.7 4.7 0 0 0 1.37 4.84 3.84 3.84 0 0 0 2.42.79 5.65 5.65 0 0 0 1.81-.33 9.56 9.56 0 0 0 5.87-8.14 5.05 5.05 0 0 0-1.77-4.43Zm-5.51 10.76a2.22 2.22 0 0 1-1.46-.52 2.7 2.7 0 0 1-.68-2.74l1.64-4.26a3.85 3.85 0 0 1 2.25-1.85 2.91 2.91 0 0 1 2.47.27 3 3 0 0 1 .92 2.62c-.14 2.66-2.14 5.55-4.35 6.31a2.48 2.48 0 0 1-.79.17ZM62.65 18.56a.31.31 0 0 0-.46 0c-.4.56-.77.86-1.12.89a.56.56 0 0 1-.47-.19c-.21-.24-.12-.85.07-1.3l7-17.51a.36.36 0 0 0 0-.31.33.33 0 0 0-.25-.16h-3.46a.33.33 0 0 0-.28.22l-.58 1.5a.39.39 0 0 0 0 .32.35.35 0 0 0 .25.17h1.45l-6.33 15.76v.12a3 3 0 0 0 .13 2.64 2.11 2.11 0 0 0 1.91.84 3.84 3.84 0 0 0 3-1.82.31.31 0 0 0 0-.39ZM66.77 23.81l-.94-.47a.45.45 0 0 0-.6.2l-.23.47a3.08 3.08 0 0 1-2.76 1.64 4.78 4.78 0 0 1-3.49-1.44l-.3-.43a.45.45 0 0 0-.29-.18.45.45 0 0 0-.33.07l-.86.6a.44.44 0 0 0-.18.29.44.44 0 0 0 .07.33l.27.42a6.34 6.34 0 0 0 4.28 2.22h.11a5.87 5.87 0 0 0 .79.06 5 5 0 0 0 4.44-2.69l.23-.47a.45.45 0 0 0-.21-.62Z"/></svg>